{
    "asset" : {
        "generator" : "Khronos glTF Blender I/O v1.4.40",
        "version" : "2.0"
    },
    "scene" : 0,
    "scenes" : [
        {
            "name" : "Scene",
            "nodes" : [
                0,
                1
            ]
        }
    ],
    "nodes" : [
        {
            "mesh" : 0,
            "name" : "logs",
            "translation" : [
                -0.6143473982810974,
                0.1899864226579666,
                3.7856810092926025
            ]
        },
        {
            "mesh" : 1,
            "name" : "planks",
            "translation" : [
                -1.4727483987808228,
                0.23256739974021912,
                3.786501884460449
            ]
        }
    ],
    "materials" : [
        {
            "name" : "Material.055",
            "pbrMetallicRoughness" : {
                "metallicFactor" : 0,
                "roughnessFactor" : 0.5
            }
        },
        {
            "name" : "Material.001",
            "pbrMetallicRoughness" : {
                "metallicFactor" : 0,
                "roughnessFactor" : 0.5
            }
        },
        {
            "doubleSided" : true,
            "name" : "Material.003",
            "pbrMetallicRoughness" : {
                "metallicFactor" : 0,
                "roughnessFactor" : 0.5
            }
        }
    ],
    "meshes" : [
        {
            "name" : "Cube.008",
            "primitives" : [
                {
                    "attributes" : {
                        "POSITION" : 0,
                        "NORMAL" : 1,
                        "TEXCOORD_0" : 2,
                        "COLOR_0" : 3
                    },
                    "indices" : 4,
                    "material" : 0
                }
            ]
        },
        {
            "name" : "Cube.074",
            "primitives" : [
                {
                    "attributes" : {
                        "POSITION" : 5,
                        "NORMAL" : 6,
                        "TEXCOORD_0" : 7,
                        "COLOR_0" : 8
                    },
                    "indices" : 9,
                    "material" : 1
                },
                {
                    "attributes" : {
                        "POSITION" : 10,
                        "NORMAL" : 11,
                        "TEXCOORD_0" : 12,
                        "COLOR_0" : 13
                    },
                    "indices" : 14,
                    "material" : 2
                }
            ]
        }
    ],
    "accessors" : [
        {
            "bufferView" : 0,
            "componentType" : 5126,
            "count" : 480,
            "max" : [
                1.2463728189468384,
                0.16426721215248108,
                0.23521862924098969
            ],
            "min" : [
                -0.6881194114685059,
                -3.5641961097717285,
                -0.2353827953338623
            ],
            "type" : "VEC3"
        },
        {
            "bufferView" : 1,
            "componentType" : 5126,
            "count" : 480,
            "type" : "VEC3"
        },
        {
            "bufferView" : 2,
            "componentType" : 5126,
            "count" : 480,
            "type" : "VEC2"
        },
        {
            "bufferView" : 3,
            "componentType" : 5123,
            "count" : 480,
            "normalized" : true,
            "type" : "VEC4"
        },
        {
            "bufferView" : 4,
            "componentType" : 5123,
            "count" : 840,
            "type" : "SCALAR"
        },
        {
            "bufferView" : 5,
            "componentType" : 5126,
            "count" : 480,
            "max" : [
                2.264172315597534,
                0.013051890768110752,
                0.17840778827667236
            ],
            "min" : [
                -0.6723628044128418,
                -0.038803327828645706,
                -0.17840947210788727
            ],
            "type" : "VEC3"
        },
        {
            "bufferView" : 6,
            "componentType" : 5126,
            "count" : 480,
            "type" : "VEC3"
        },
        {
            "bufferView" : 7,
            "componentType" : 5126,
            "count" : 480,
            "type" : "VEC2"
        },
        {
            "bufferView" : 8,
            "componentType" : 5123,
            "count" : 480,
            "normalized" : true,
            "type" : "VEC4"
        },
        {
            "bufferView" : 9,
            "componentType" : 5123,
            "count" : 720,
            "type" : "SCALAR"
        },
        {
            "bufferView" : 10,
            "componentType" : 5126,
            "count" : 24,
            "max" : [
                2.264172315597534,
                0.0013294812524691224,
                -0.08528942614793777
            ],
            "min" : [
                -0.6723629832267761,
                -0.03880330175161362,
                -0.11232621967792511
            ],
            "type" : "VEC3"
        },
        {
            "bufferView" : 11,
            "componentType" : 5126,
            "count" : 24,
            "type" : "VEC3"
        },
        {
            "bufferView" : 12,
            "componentType" : 5126,
            "count" : 24,
            "type" : "VEC2"
        },
        {
            "bufferView" : 13,
            "componentType" : 5123,
            "count" : 24,
            "normalized" : true,
            "type" : "VEC4"
        },
        {
            "bufferView" : 14,
            "componentType" : 5123,
            "count" : 36,
            "type" : "SCALAR"
        }
    ],
    "bufferViews" : [
        {
            "buffer" : 0,
            "byteLength" : 5760,
            "byteOffset" : 0
        },
        {
            "buffer" : 0,
            "byteLength" : 5760,
            "byteOffset" : 5760
        },
        {
            "buffer" : 0,
            "byteLength" : 3840,
            "byteOffset" : 11520
        },
        {
            "buffer" : 0,
            "byteLength" : 3840,
            "byteOffset" : 15360
        },
        {
            "buffer" : 0,
            "byteLength" : 1680,
            "byteOffset" : 19200
        },
        {
            "buffer" : 0,
            "byteLength" : 5760,
            "byteOffset" : 20880
        },
        {
            "buffer" : 0,
            "byteLength" : 5760,
            "byteOffset" : 26640
        },
        {
            "buffer" : 0,
            "byteLength" : 3840,
            "byteOffset" : 32400
        },
        {
            "buffer" : 0,
            "byteLength" : 3840,
            "byteOffset" : 36240
        },
        {
            "buffer" : 0,
            "byteLength" : 1440,
            "byteOffset" : 40080
        },
        {
            "buffer" : 0,
            "byteLength" : 288,
            "byteOffset" : 41520
        },
        {
            "buffer" : 0,
            "byteLength" : 288,
            "byteOffset" : 41808
        },
        {
            "buffer" : 0,
            "byteLength" : 192,
            "byteOffset" : 42096
        },
        {
            "buffer" : 0,
            "byteLength" : 192,
            "byteOffset" : 42288
        },
        {
            "buffer" : 0,
            "byteLength" : 72,
            "byteOffset" : 42480
        }
    ],
    "buffers" : [
        {
            "byteLength" : 42552,
            "uri" : "data:application/octet-stream;base64,"
        }
    ]
}
