{
    "asset" : {
        "generator" : "Khronos glTF Blender I/O v1.4.40",
        "version" : "2.0"
    },
    "scene" : 0,
    "scenes" : [
        {
            "name" : "Scene",
            "nodes" : [
                0,
                1,
                2,
                3,
                4,
                5
            ]
        }
    ],
    "nodes" : [
        {
            "mesh" : 0,
            "name" : "base",
            "translation" : [
                -2.5950186252593994,
                0.2530941963195801,
                3.7856810092926025
            ]
        },
        {
            "mesh" : 1,
            "name" : "roof",
            "translation" : [
                -2.6089181900024414,
                0.26399874687194824,
                3.3867480754852295
            ]
        },
        {
            "mesh" : 2,
            "name" : "walls",
            "translation" : [
                -2.6089181900024414,
                0.26399874687194824,
                3.3867480754852295
            ]
        },
        {
            "mesh" : 3,
            "name" : "door",
            "translation" : [
                -2.030839443206787,
                0.5891127586364746,
                3.782991647720337
            ]
        },
        {
            "mesh" : 4,
            "name" : "logs",
            "translation" : [
                -0.6143473982810974,
                0.1899864226579666,
                3.7856810092926025
            ]
        },
        {
            "mesh" : 5,
            "name" : "planks",
            "translation" : [
                -1.4727483987808228,
                0.23256739974021912,
                3.786501884460449
            ]
        }
    ],
    "materials" : [
        {
            "name" : "Material.054",
            "pbrMetallicRoughness" : {
                "metallicFactor" : 0,
                "roughnessFactor" : 0.5
            }
        },
        {
            "name" : "Material.004",
            "pbrMetallicRoughness" : {
                "metallicFactor" : 0,
                "roughnessFactor" : 0.5
            }
        },
        {
            "name" : "Material.005",
            "pbrMetallicRoughness" : {
                "metallicFactor" : 0,
                "roughnessFactor" : 0.5
            }
        },
        {
            "name" : "Material.055",
            "pbrMetallicRoughness" : {
                "metallicFactor" : 0,
                "roughnessFactor" : 0.5
            }
        },
        {
            "name" : "Material.001",
            "pbrMetallicRoughness" : {
                "metallicFactor" : 0,
                "roughnessFactor" : 0.5
            }
        },
        {
            "doubleSided" : true,
            "name" : "Material.003",
            "pbrMetallicRoughness" : {
                "metallicFactor" : 0,
                "roughnessFactor" : 0.5
            }
        }
    ],
    "meshes" : [
        {
            "name" : "Cube.016",
            "primitives" : [
                {
                    "attributes" : {
                        "POSITION" : 0,
                        "NORMAL" : 1,
                        "TEXCOORD_0" : 2,
                        "COLOR_0" : 3
                    },
                    "indices" : 4,
                    "material" : 0
                }
            ]
        },
        {
            "name" : "Cube.039",
            "primitives" : [
                {
                    "attributes" : {
                        "POSITION" : 5,
                        "NORMAL" : 6,
                        "TEXCOORD_0" : 7,
                        "COLOR_0" : 8
                    },
                    "indices" : 9,
                    "material" : 1
                }
            ]
        },
        {
            "name" : "Cube.043",
            "primitives" : [
                {
                    "attributes" : {
                        "POSITION" : 10,
                        "NORMAL" : 11,
                        "TEXCOORD_0" : 12,
                        "COLOR_0" : 13
                    },
                    "indices" : 14,
                    "material" : 1
                }
            ]
        },
        {
            "name" : "Cube.048",
            "primitives" : [
                {
                    "attributes" : {
                        "POSITION" : 15,
                        "NORMAL" : 16,
                        "TEXCOORD_0" : 17,
                        "COLOR_0" : 18
                    },
                    "indices" : 19,
                    "material" : 2
                }
            ]
        },
        {
            "name" : "Cube.008",
            "primitives" : [
                {
                    "attributes" : {
                        "POSITION" : 20,
                        "NORMAL" : 21,
                        "TEXCOORD_0" : 22,
                        "COLOR_0" : 23
                    },
                    "indices" : 24,
                    "material" : 3
                }
            ]
        },
        {
            "name" : "Cube.074",
            "primitives" : [
                {
                    "attributes" : {
                        "POSITION" : 25,
                        "NORMAL" : 26,
                        "TEXCOORD_0" : 27,
                        "COLOR_0" : 28
                    },
                    "indices" : 29,
                    "material" : 4
                },
                {
                    "attributes" : {
                        "POSITION" : 30,
                        "NORMAL" : 31,
                        "TEXCOORD_0" : 32,
                        "COLOR_0" : 33
                    },
                    "indices" : 34,
                    "material" : 5
                }
            ]
        }
    ],
    "accessors" : [
        {
            "bufferView" : 0,
            "componentType" : 5126,
            "count" : 30,
            "max" : [
                0.5578145980834961,
                1.139095664024353,
                0.38319501280784607
            ],
            "min" : [
                -0.5578141212463379,
                -0.0867128074169159,
                -0.38319501280784607
            ],
            "type" : "VEC3"
        },
        {
            "bufferView" : 1,
            "componentType" : 5126,
            "count" : 30,
            "type" : "VEC3"
        },
        {
            "bufferView" : 2,
            "componentType" : 5126,
            "count" : 30,
            "type" : "VEC2"
        },
        {
            "bufferView" : 3,
            "componentType" : 5123,
            "count" : 30,
            "normalized" : true,
            "type" : "VEC4"
        },
        {
            "bufferView" : 4,
            "componentType" : 5123,
            "count" : 48,
            "type" : "SCALAR"
        },
        {
            "bufferView" : 5,
            "componentType" : 5126,
            "count" : 192,
            "max" : [
                0.6973820328712463,
                1.1510131359100342,
                0.8582803010940552
            ],
            "min" : [
                -0.685286283493042,
                0.6369126439094543,
                -0.06369245797395706
            ],
            "type" : "VEC3"
        },
        {
            "bufferView" : 6,
            "componentType" : 5126,
            "count" : 192,
            "type" : "VEC3"
        },
        {
            "bufferView" : 7,
            "componentType" : 5126,
            "count" : 192,
            "type" : "VEC2"
        },
        {
            "bufferView" : 8,
            "componentType" : 5123,
            "count" : 192,
            "normalized" : true,
            "type" : "VEC4"
        },
        {
            "bufferView" : 9,
            "componentType" : 5123,
            "count" : 288,
            "type" : "SCALAR"
        },
        {
            "bufferView" : 10,
            "componentType" : 5126,
            "count" : 240,
            "max" : [
                0.5777419209480286,
                0.7002037167549133,
                0.8110745549201965
            ],
            "min" : [
                -0.5672245025634766,
                -0.07738585025072098,
                -0.016484662890434265
            ],
            "type" : "VEC3"
        },
        {
            "bufferView" : 11,
            "componentType" : 5126,
            "count" : 240,
            "type" : "VEC3"
        },
        {
            "bufferView" : 12,
            "componentType" : 5126,
            "count" : 240,
            "type" : "VEC2"
        },
        {
            "bufferView" : 13,
            "componentType" : 5123,
            "count" : 240,
            "normalized" : true,
            "type" : "VEC4"
        },
        {
            "bufferView" : 14,
            "componentType" : 5123,
            "count" : 360,
            "type" : "SCALAR"
        },
        {
            "bufferView" : 15,
            "componentType" : 5126,
            "count" : 90,
            "max" : [
                0.034023698419332504,
                0.34903785586357117,
                0.16309018433094025
            ],
            "min" : [
                -0.034023698419332504,
                -0.34903785586357117,
                -0.16309018433094025
            ],
            "type" : "VEC3"
        },
        {
            "bufferView" : 16,
            "componentType" : 5126,
            "count" : 90,
            "type" : "VEC3"
        },
        {
            "bufferView" : 17,
            "componentType" : 5126,
            "count" : 90,
            "type" : "VEC2"
        },
        {
            "bufferView" : 18,
            "componentType" : 5123,
            "count" : 90,
            "normalized" : true,
            "type" : "VEC4"
        },
        {
            "bufferView" : 19,
            "componentType" : 5123,
            "count" : 132,
            "type" : "SCALAR"
        },
        {
            "bufferView" : 20,
            "componentType" : 5126,
            "count" : 480,
            "max" : [
                1.2463728189468384,
                0.16426721215248108,
                0.23521862924098969
            ],
            "min" : [
                -0.6881194114685059,
                -3.5641961097717285,
                -0.2353827953338623
            ],
            "type" : "VEC3"
        },
        {
            "bufferView" : 21,
            "componentType" : 5126,
            "count" : 480,
            "type" : "VEC3"
        },
        {
            "bufferView" : 22,
            "componentType" : 5126,
            "count" : 480,
            "type" : "VEC2"
        },
        {
            "bufferView" : 23,
            "componentType" : 5123,
            "count" : 480,
            "normalized" : true,
            "type" : "VEC4"
        },
        {
            "bufferView" : 24,
            "componentType" : 5123,
            "count" : 840,
            "type" : "SCALAR"
        },
        {
            "bufferView" : 25,
            "componentType" : 5126,
            "count" : 480,
            "max" : [
                2.264172315597534,
                0.013051890768110752,
                0.17840778827667236
            ],
            "min" : [
                -0.6723628044128418,
                -0.038803327828645706,
                -0.17840947210788727
            ],
            "type" : "VEC3"
        },
        {
            "bufferView" : 26,
            "componentType" : 5126,
            "count" : 480,
            "type" : "VEC3"
        },
        {
            "bufferView" : 27,
            "componentType" : 5126,
            "count" : 480,
            "type" : "VEC2"
        },
        {
            "bufferView" : 28,
            "componentType" : 5123,
            "count" : 480,
            "normalized" : true,
            "type" : "VEC4"
        },
        {
            "bufferView" : 29,
            "componentType" : 5123,
            "count" : 720,
            "type" : "SCALAR"
        },
        {
            "bufferView" : 30,
            "componentType" : 5126,
            "count" : 24,
            "max" : [
                2.264172315597534,
                0.0013294812524691224,
                -0.08528942614793777
            ],
            "min" : [
                -0.6723629832267761,
                -0.03880330175161362,
                -0.11232621967792511
            ],
            "type" : "VEC3"
        },
        {
            "bufferView" : 31,
            "componentType" : 5126,
            "count" : 24,
            "type" : "VEC3"
        },
        {
            "bufferView" : 32,
            "componentType" : 5126,
            "count" : 24,
            "type" : "VEC2"
        },
        {
            "bufferView" : 33,
            "componentType" : 5123,
            "count" : 24,
            "normalized" : true,
            "type" : "VEC4"
        },
        {
            "bufferView" : 34,
            "componentType" : 5123,
            "count" : 36,
            "type" : "SCALAR"
        }
    ],
    "bufferViews" : [
        {
            "buffer" : 0,
            "byteLength" : 360,
            "byteOffset" : 0
        },
        {
            "buffer" : 0,
            "byteLength" : 360,
            "byteOffset" : 360
        },
        {
            "buffer" : 0,
            "byteLength" : 240,
            "byteOffset" : 720
        },
        {
            "buffer" : 0,
            "byteLength" : 240,
            "byteOffset" : 960
        },
        {
            "buffer" : 0,
            "byteLength" : 96,
            "byteOffset" : 1200
        },
        {
            "buffer" : 0,
            "byteLength" : 2304,
            "byteOffset" : 1296
        },
        {
            "buffer" : 0,
            "byteLength" : 2304,
            "byteOffset" : 3600
        },
        {
            "buffer" : 0,
            "byteLength" : 1536,
            "byteOffset" : 5904
        },
        {
            "buffer" : 0,
            "byteLength" : 1536,
            "byteOffset" : 7440
        },
        {
            "buffer" : 0,
            "byteLength" : 576,
            "byteOffset" : 8976
        },
        {
            "buffer" : 0,
            "byteLength" : 2880,
            "byteOffset" : 9552
        },
        {
            "buffer" : 0,
            "byteLength" : 2880,
            "byteOffset" : 12432
        },
        {
            "buffer" : 0,
            "byteLength" : 1920,
            "byteOffset" : 15312
        },
        {
            "buffer" : 0,
            "byteLength" : 1920,
            "byteOffset" : 17232
        },
        {
            "buffer" : 0,
            "byteLength" : 720,
            "byteOffset" : 19152
        },
        {
            "buffer" : 0,
            "byteLength" : 1080,
            "byteOffset" : 19872
        },
        {
            "buffer" : 0,
            "byteLength" : 1080,
            "byteOffset" : 20952
        },
        {
            "buffer" : 0,
            "byteLength" : 720,
            "byteOffset" : 22032
        },
        {
            "buffer" : 0,
            "byteLength" : 720,
            "byteOffset" : 22752
        },
        {
            "buffer" : 0,
            "byteLength" : 264,
            "byteOffset" : 23472
        },
        {
            "buffer" : 0,
            "byteLength" : 5760,
            "byteOffset" : 23736
        },
        {
            "buffer" : 0,
            "byteLength" : 5760,
            "byteOffset" : 29496
        },
        {
            "buffer" : 0,
            "byteLength" : 3840,
            "byteOffset" : 35256
        },
        {
            "buffer" : 0,
            "byteLength" : 3840,
            "byteOffset" : 39096
        },
        {
            "buffer" : 0,
            "byteLength" : 1680,
            "byteOffset" : 42936
        },
        {
            "buffer" : 0,
            "byteLength" : 5760,
            "byteOffset" : 44616
        },
        {
            "buffer" : 0,
            "byteLength" : 5760,
            "byteOffset" : 50376
        },
        {
            "buffer" : 0,
            "byteLength" : 3840,
            "byteOffset" : 56136
        },
        {
            "buffer" : 0,
            "byteLength" : 3840,
            "byteOffset" : 59976
        },
        {
            "buffer" : 0,
            "byteLength" : 1440,
            "byteOffset" : 63816
        },
        {
            "buffer" : 0,
            "byteLength" : 288,
            "byteOffset" : 65256
        },
        {
            "buffer" : 0,
            "byteLength" : 288,
            "byteOffset" : 65544
        },
        {
            "buffer" : 0,
            "byteLength" : 192,
            "byteOffset" : 65832
        },
        {
            "buffer" : 0,
            "byteLength" : 192,
            "byteOffset" : 66024
        },
        {
            "buffer" : 0,
            "byteLength" : 72,
            "byteOffset" : 66216
        }
    ],
    "buffers" : [
        {
            "byteLength" : 66288,
            "uri" : "data:application/octet-stream;base64,"
        }
    ]
}
