{
    "asset" : {
        "generator" : "Khronos glTF Blender I/O v1.4.40",
        "version" : "2.0"
    },
    "scene" : 0,
    "scenes" : [
        {
            "name" : "Scene",
            "nodes" : [
                0
            ]
        }
    ],
    "nodes" : [
        {
            "mesh" : 0,
            "name" : "Terrain",
            "translation" : [
                -0.817846417427063,
                0.07214586436748505,
                -1.7269636392593384
            ]
        }
    ],
    "materials" : [
        {
            "name" : "Material.009",
            "pbrMetallicRoughness" : {
                "metallicFactor" : 0,
                "roughnessFactor" : 0.5
            }
        },
        {
            "name" : "Material.010",
            "pbrMetallicRoughness" : {
                "metallicFactor" : 0,
                "roughnessFactor" : 0.5
            }
        },
        {
            "name" : "Material.006",
            "pbrMetallicRoughness" : {
                "metallicFactor" : 0,
                "roughnessFactor" : 0.5
            }
        },
        {
            "name" : "Material",
            "pbrMetallicRoughness" : {
                "metallicFactor" : 0,
                "roughnessFactor" : 0.5
            }
        }
    ],
    "meshes" : [
        {
            "name" : "Plane.010",
            "primitives" : [
                {
                    "attributes" : {
                        "POSITION" : 0,
                        "NORMAL" : 1,
                        "TEXCOORD_0" : 2,
                        "COLOR_0" : 3
                    },
                    "indices" : 4,
                    "material" : 0
                },
                {
                    "attributes" : {
                        "POSITION" : 5,
                        "NORMAL" : 6,
                        "TEXCOORD_0" : 7,
                        "COLOR_0" : 8
                    },
                    "indices" : 9,
                    "material" : 1
                },
                {
                    "attributes" : {
                        "POSITION" : 10,
                        "NORMAL" : 11,
                        "TEXCOORD_0" : 12,
                        "COLOR_0" : 13
                    },
                    "indices" : 14,
                    "material" : 2
                },
                {
                    "attributes" : {
                        "POSITION" : 15,
                        "NORMAL" : 16,
                        "TEXCOORD_0" : 17,
                        "COLOR_0" : 18
                    },
                    "indices" : 19,
                    "material" : 3
                }
            ]
        }
    ],
    "accessors" : [
        {
            "bufferView" : 0,
            "componentType" : 5126,
            "count" : 434,
            "max" : [
                7.0970940589904785,
                1.8659610748291016,
                6.862799167633057
            ],
            "min" : [
                -5.146796703338623,
                -1.3791563510894775,
                -5.785239219665527
            ],
            "type" : "VEC3"
        },
        {
            "bufferView" : 1,
            "componentType" : 5126,
            "count" : 434,
            "type" : "VEC3"
        },
        {
            "bufferView" : 2,
            "componentType" : 5126,
            "count" : 434,
            "type" : "VEC2"
        },
        {
            "bufferView" : 3,
            "componentType" : 5123,
            "count" : 434,
            "normalized" : true,
            "type" : "VEC4"
        },
        {
            "bufferView" : 4,
            "componentType" : 5123,
            "count" : 450,
            "type" : "SCALAR"
        },
        {
            "bufferView" : 5,
            "componentType" : 5126,
            "count" : 441,
            "max" : [
                15.386096954345703,
                1.8659610748291016,
                6.180276393890381
            ],
            "min" : [
                5.551711559295654,
                -1.8527764081954956,
                -6.263727188110352
            ],
            "type" : "VEC3"
        },
        {
            "bufferView" : 6,
            "componentType" : 5126,
            "count" : 441,
            "type" : "VEC3"
        },
        {
            "bufferView" : 7,
            "componentType" : 5126,
            "count" : 441,
            "type" : "VEC2"
        },
        {
            "bufferView" : 8,
            "componentType" : 5123,
            "count" : 441,
            "normalized" : true,
            "type" : "VEC4"
        },
        {
            "bufferView" : 9,
            "componentType" : 5123,
            "count" : 459,
            "type" : "SCALAR"
        },
        {
            "bufferView" : 10,
            "componentType" : 5126,
            "count" : 536,
            "max" : [
                10.563935279846191,
                0.5857722163200378,
                7.913548946380615
            ],
            "min" : [
                -4.816258907318115,
                -11.465880393981934,
                -1.3797667026519775
            ],
            "type" : "VEC3"
        },
        {
            "bufferView" : 11,
            "componentType" : 5126,
            "count" : 536,
            "type" : "VEC3"
        },
        {
            "bufferView" : 12,
            "componentType" : 5126,
            "count" : 536,
            "type" : "VEC2"
        },
        {
            "bufferView" : 13,
            "componentType" : 5123,
            "count" : 536,
            "normalized" : true,
            "type" : "VEC4"
        },
        {
            "bufferView" : 14,
            "componentType" : 5123,
            "count" : 552,
            "type" : "SCALAR"
        },
        {
            "bufferView" : 15,
            "componentType" : 5126,
            "count" : 38,
            "max" : [
                10.737955093383789,
                -0.04334881156682968,
                7.084242820739746
            ],
            "min" : [
                7.1232194900512695,
                -2.6062302589416504,
                -0.9270473122596741
            ],
            "type" : "VEC3"
        },
        {
            "bufferView" : 16,
            "componentType" : 5126,
            "count" : 38,
            "type" : "VEC3"
        },
        {
            "bufferView" : 17,
            "componentType" : 5126,
            "count" : 38,
            "type" : "VEC2"
        },
        {
            "bufferView" : 18,
            "componentType" : 5123,
            "count" : 38,
            "normalized" : true,
            "type" : "VEC4"
        },
        {
            "bufferView" : 19,
            "componentType" : 5123,
            "count" : 42,
            "type" : "SCALAR"
        }
    ],
    "bufferViews" : [
        {
            "buffer" : 0,
            "byteLength" : 5208,
            "byteOffset" : 0
        },
        {
            "buffer" : 0,
            "byteLength" : 5208,
            "byteOffset" : 5208
        },
        {
            "buffer" : 0,
            "byteLength" : 3472,
            "byteOffset" : 10416
        },
        {
            "buffer" : 0,
            "byteLength" : 3472,
            "byteOffset" : 13888
        },
        {
            "buffer" : 0,
            "byteLength" : 900,
            "byteOffset" : 17360
        },
        {
            "buffer" : 0,
            "byteLength" : 5292,
            "byteOffset" : 18260
        },
        {
            "buffer" : 0,
            "byteLength" : 5292,
            "byteOffset" : 23552
        },
        {
            "buffer" : 0,
            "byteLength" : 3528,
            "byteOffset" : 28844
        },
        {
            "buffer" : 0,
            "byteLength" : 3528,
            "byteOffset" : 32372
        },
        {
            "buffer" : 0,
            "byteLength" : 918,
            "byteOffset" : 35900
        },
        {
            "buffer" : 0,
            "byteLength" : 6432,
            "byteOffset" : 36820
        },
        {
            "buffer" : 0,
            "byteLength" : 6432,
            "byteOffset" : 43252
        },
        {
            "buffer" : 0,
            "byteLength" : 4288,
            "byteOffset" : 49684
        },
        {
            "buffer" : 0,
            "byteLength" : 4288,
            "byteOffset" : 53972
        },
        {
            "buffer" : 0,
            "byteLength" : 1104,
            "byteOffset" : 58260
        },
        {
            "buffer" : 0,
            "byteLength" : 456,
            "byteOffset" : 59364
        },
        {
            "buffer" : 0,
            "byteLength" : 456,
            "byteOffset" : 59820
        },
        {
            "buffer" : 0,
            "byteLength" : 304,
            "byteOffset" : 60276
        },
        {
            "buffer" : 0,
            "byteLength" : 304,
            "byteOffset" : 60580
        },
        {
            "buffer" : 0,
            "byteLength" : 84,
            "byteOffset" : 60884
        }
    ],
    "buffers" : [
        {
            "byteLength" : 60968,
            "uri" : "data:application/octet-stream;base64,"
        }
    ]
}
