{
    "asset" : {
        "generator" : "Khronos glTF Blender I/O v1.4.40",
        "version" : "2.0"
    },
    "scene" : 0,
    "scenes" : [
        {
            "name" : "Scene",
            "nodes" : [
                0,
                1
            ]
        }
    ],
    "nodes" : [
        {
            "mesh" : 0,
            "name" : "Mountain",
            "translation" : [
                -42.05210876464844,
                0.4407212436199188,
                -42.49489212036133
            ]
        },
        {
            "mesh" : 1,
            "name" : "Mountain.001",
            "translation" : [
                51.074581146240234,
                -7.400115966796875,
                -42.49489212036133
            ]
        }
    ],
    "meshes" : [
        {
            "name" : "Plane.006",
            "primitives" : [
                {
                    "attributes" : {
                        "POSITION" : 0,
                        "NORMAL" : 1,
                        "TEXCOORD_0" : 2,
                        "COLOR_0" : 3
                    },
                    "indices" : 4
                }
            ]
        },
        {
            "name" : "Plane.004",
            "primitives" : [
                {
                    "attributes" : {
                        "POSITION" : 5,
                        "NORMAL" : 6,
                        "TEXCOORD_0" : 7,
                        "COLOR_0" : 8
                    },
                    "indices" : 9
                }
            ]
        }
    ],
    "accessors" : [
        {
            "bufferView" : 0,
            "componentType" : 5126,
            "count" : 810,
            "max" : [
                61.0499153137207,
                29.299467086791992,
                27.918668746948242
            ],
            "min" : [
                -18.743532180786133,
                -4.917421340942383,
                1.1444339752197266
            ],
            "type" : "VEC3"
        },
        {
            "bufferView" : 1,
            "componentType" : 5126,
            "count" : 810,
            "type" : "VEC3"
        },
        {
            "bufferView" : 2,
            "componentType" : 5126,
            "count" : 810,
            "type" : "VEC2"
        },
        {
            "bufferView" : 3,
            "componentType" : 5123,
            "count" : 810,
            "normalized" : true,
            "type" : "VEC4"
        },
        {
            "bufferView" : 4,
            "componentType" : 5123,
            "count" : 810,
            "type" : "SCALAR"
        },
        {
            "bufferView" : 5,
            "componentType" : 5126,
            "count" : 570,
            "max" : [
                25.858186721801758,
                29.299467086791992,
                23.597097396850586
            ],
            "min" : [
                -46.35260009765625,
                4.357425689697266,
                -6.267220497131348
            ],
            "type" : "VEC3"
        },
        {
            "bufferView" : 6,
            "componentType" : 5126,
            "count" : 570,
            "type" : "VEC3"
        },
        {
            "bufferView" : 7,
            "componentType" : 5126,
            "count" : 570,
            "type" : "VEC2"
        },
        {
            "bufferView" : 8,
            "componentType" : 5123,
            "count" : 570,
            "normalized" : true,
            "type" : "VEC4"
        },
        {
            "bufferView" : 9,
            "componentType" : 5123,
            "count" : 570,
            "type" : "SCALAR"
        }
    ],
    "bufferViews" : [
        {
            "buffer" : 0,
            "byteLength" : 9720,
            "byteOffset" : 0
        },
        {
            "buffer" : 0,
            "byteLength" : 9720,
            "byteOffset" : 9720
        },
        {
            "buffer" : 0,
            "byteLength" : 6480,
            "byteOffset" : 19440
        },
        {
            "buffer" : 0,
            "byteLength" : 6480,
            "byteOffset" : 25920
        },
        {
            "buffer" : 0,
            "byteLength" : 1620,
            "byteOffset" : 32400
        },
        {
            "buffer" : 0,
            "byteLength" : 6840,
            "byteOffset" : 34020
        },
        {
            "buffer" : 0,
            "byteLength" : 6840,
            "byteOffset" : 40860
        },
        {
            "buffer" : 0,
            "byteLength" : 4560,
            "byteOffset" : 47700
        },
        {
            "buffer" : 0,
            "byteLength" : 4560,
            "byteOffset" : 52260
        },
        {
            "buffer" : 0,
            "byteLength" : 1140,
            "byteOffset" : 56820
        }
    ],
    "buffers" : [
        {
            "byteLength" : 57960,
            "uri" : "data:application/octet-stream;base64,"
        }
    ]
}
