{
    "asset" : {
        "generator" : "Khronos glTF Blender I/O v1.4.40",
        "version" : "2.0"
    },
    "scene" : 0,
    "scenes" : [
        {
            "name" : "Scene",
            "nodes" : [
                0,
                1,
                2,
                3,
                4
            ]
        }
    ],
    "nodes" : [
        {
            "mesh" : 0,
            "name" : "rock.002",
            "translation" : [
                -1.2384233474731445,
                -0.05587821453809738,
                3.379296064376831
            ]
        },
        {
            "mesh" : 1,
            "name" : "rock.003",
            "translation" : [
                -1.2292687892913818,
                -0.03628399968147278,
                4.1152472496032715
            ]
        },
        {
            "mesh" : 2,
            "name" : "rock.004",
            "translation" : [
                -1.309210181236267,
                -0.04068402945995331,
                4.550700664520264
            ]
        },
        {
            "mesh" : 3,
            "name" : "rock.001",
            "translation" : [
                -1.3709301948547363,
                -0.03743365779519081,
                4.8526716232299805
            ]
        },
        {
            "mesh" : 4,
            "name" : "rock",
            "translation" : [
                -1.2296212911605835,
                -0.012382298707962036,
                2.8906829357147217
            ]
        }
    ],
    "meshes" : [
        {
            "name" : "Plane.019",
            "primitives" : [
                {
                    "attributes" : {
                        "POSITION" : 0,
                        "NORMAL" : 1,
                        "TEXCOORD_0" : 2
                    },
                    "indices" : 3
                }
            ]
        },
        {
            "name" : "Plane.026",
            "primitives" : [
                {
                    "attributes" : {
                        "POSITION" : 4,
                        "NORMAL" : 5,
                        "TEXCOORD_0" : 6
                    },
                    "indices" : 7
                }
            ]
        },
        {
            "name" : "Plane.040",
            "primitives" : [
                {
                    "attributes" : {
                        "POSITION" : 8,
                        "NORMAL" : 9,
                        "TEXCOORD_0" : 10
                    },
                    "indices" : 11
                }
            ]
        },
        {
            "name" : "Plane.001",
            "primitives" : [
                {
                    "attributes" : {
                        "POSITION" : 12,
                        "NORMAL" : 13,
                        "TEXCOORD_0" : 14
                    },
                    "indices" : 15
                }
            ]
        },
        {
            "name" : "Plane.003",
            "primitives" : [
                {
                    "attributes" : {
                        "POSITION" : 16,
                        "NORMAL" : 17,
                        "TEXCOORD_0" : 18
                    },
                    "indices" : 19
                }
            ]
        }
    ],
    "accessors" : [
        {
            "bufferView" : 0,
            "componentType" : 5126,
            "count" : 56,
            "max" : [
                0.1910213828086853,
                0.16724811494350433,
                0.23152081668376923
            ],
            "min" : [
                -0.1826963722705841,
                -0.026088567450642586,
                -0.2878921627998352
            ],
            "type" : "VEC3"
        },
        {
            "bufferView" : 1,
            "componentType" : 5126,
            "count" : 56,
            "type" : "VEC3"
        },
        {
            "bufferView" : 2,
            "componentType" : 5126,
            "count" : 56,
            "type" : "VEC2"
        },
        {
            "bufferView" : 3,
            "componentType" : 5123,
            "count" : 84,
            "type" : "SCALAR"
        },
        {
            "bufferView" : 4,
            "componentType" : 5126,
            "count" : 56,
            "max" : [
                0.2259572446346283,
                0.18583513796329498,
                0.27637407183647156
            ],
            "min" : [
                -0.16094447672367096,
                -0.03966180607676506,
                -0.25044959783554077
            ],
            "type" : "VEC3"
        },
        {
            "bufferView" : 5,
            "componentType" : 5126,
            "count" : 56,
            "type" : "VEC3"
        },
        {
            "bufferView" : 6,
            "componentType" : 5126,
            "count" : 56,
            "type" : "VEC2"
        },
        {
            "bufferView" : 7,
            "componentType" : 5123,
            "count" : 84,
            "type" : "SCALAR"
        },
        {
            "bufferView" : 8,
            "componentType" : 5126,
            "count" : 56,
            "max" : [
                0.19874757528305054,
                0.18575707077980042,
                0.22055396437644958
            ],
            "min" : [
                -0.16973575949668884,
                -0.051911503076553345,
                -0.30092206597328186
            ],
            "type" : "VEC3"
        },
        {
            "bufferView" : 9,
            "componentType" : 5126,
            "count" : 56,
            "type" : "VEC3"
        },
        {
            "bufferView" : 10,
            "componentType" : 5126,
            "count" : 56,
            "type" : "VEC2"
        },
        {
            "bufferView" : 11,
            "componentType" : 5123,
            "count" : 84,
            "type" : "SCALAR"
        },
        {
            "bufferView" : 12,
            "componentType" : 5126,
            "count" : 56,
            "max" : [
                0.2551726698875427,
                0.15631160140037537,
                0.16471180319786072
            ],
            "min" : [
                -0.17518877983093262,
                -0.048649758100509644,
                -0.13657189905643463
            ],
            "type" : "VEC3"
        },
        {
            "bufferView" : 13,
            "componentType" : 5126,
            "count" : 56,
            "type" : "VEC3"
        },
        {
            "bufferView" : 14,
            "componentType" : 5126,
            "count" : 56,
            "type" : "VEC2"
        },
        {
            "bufferView" : 15,
            "componentType" : 5123,
            "count" : 84,
            "type" : "SCALAR"
        },
        {
            "bufferView" : 16,
            "componentType" : 5126,
            "count" : 56,
            "max" : [
                0.227218359708786,
                0.2003621608018875,
                0.2670859396457672
            ],
            "min" : [
                -0.1726689338684082,
                -0.03553174063563347,
                -0.25022006034851074
            ],
            "type" : "VEC3"
        },
        {
            "bufferView" : 17,
            "componentType" : 5126,
            "count" : 56,
            "type" : "VEC3"
        },
        {
            "bufferView" : 18,
            "componentType" : 5126,
            "count" : 56,
            "type" : "VEC2"
        },
        {
            "bufferView" : 19,
            "componentType" : 5123,
            "count" : 84,
            "type" : "SCALAR"
        }
    ],
    "bufferViews" : [
        {
            "buffer" : 0,
            "byteLength" : 672,
            "byteOffset" : 0
        },
        {
            "buffer" : 0,
            "byteLength" : 672,
            "byteOffset" : 672
        },
        {
            "buffer" : 0,
            "byteLength" : 448,
            "byteOffset" : 1344
        },
        {
            "buffer" : 0,
            "byteLength" : 168,
            "byteOffset" : 1792
        },
        {
            "buffer" : 0,
            "byteLength" : 672,
            "byteOffset" : 1960
        },
        {
            "buffer" : 0,
            "byteLength" : 672,
            "byteOffset" : 2632
        },
        {
            "buffer" : 0,
            "byteLength" : 448,
            "byteOffset" : 3304
        },
        {
            "buffer" : 0,
            "byteLength" : 168,
            "byteOffset" : 3752
        },
        {
            "buffer" : 0,
            "byteLength" : 672,
            "byteOffset" : 3920
        },
        {
            "buffer" : 0,
            "byteLength" : 672,
            "byteOffset" : 4592
        },
        {
            "buffer" : 0,
            "byteLength" : 448,
            "byteOffset" : 5264
        },
        {
            "buffer" : 0,
            "byteLength" : 168,
            "byteOffset" : 5712
        },
        {
            "buffer" : 0,
            "byteLength" : 672,
            "byteOffset" : 5880
        },
        {
            "buffer" : 0,
            "byteLength" : 672,
            "byteOffset" : 6552
        },
        {
            "buffer" : 0,
            "byteLength" : 448,
            "byteOffset" : 7224
        },
        {
            "buffer" : 0,
            "byteLength" : 168,
            "byteOffset" : 7672
        },
        {
            "buffer" : 0,
            "byteLength" : 672,
            "byteOffset" : 7840
        },
        {
            "buffer" : 0,
            "byteLength" : 672,
            "byteOffset" : 8512
        },
        {
            "buffer" : 0,
            "byteLength" : 448,
            "byteOffset" : 9184
        },
        {
            "buffer" : 0,
            "byteLength" : 168,
            "byteOffset" : 9632
        }
    ],
    "buffers" : [
        {
            "byteLength" : 9800,
            "uri" : "data:application/octet-stream;base64,"
        }
    ]
}
